<svg xmlns="http://www.w3.org/2000/svg" width="256" height="256"><path fill-opacity=".016" d="M0 128.004v128.004l128.25-.254 128.25-.254.254-127.75L257.008 0H0v128.004m.485.496c0 70.4.119 99.053.265 63.672.146-35.38.146-92.98 0-128C.604 29.153.485 58.1.485 128.5" fill="#1976D2" fill-rule="evenodd"/><path fill-opacity=".338" d="M17.332 18.787c-6.857 2.455-11.854 6.401-14.591 11.521L.5 34.5.189 125c-.226 65.746.005 91.964.844 95.851 1.597 7.394 8.224 14.294 15.899 16.551 16.017 4.712 32.012-.58 37.485-12.402 1.998-4.317 2.103-6.513 2.583-53.919l.5-49.419 8.953 13.919c4.925 7.656 17.133 26.356 27.131 41.557 16.376 24.9 18.659 27.921 23.046 30.5 4.106 2.413 5.968 2.862 11.87 2.862 5.888 0 7.767-.451 11.828-2.838 8.789-5.166 13.346-15.956 10.783-25.536-1.683-6.294-89.911-149.2-95.942-155.402-6.857-7.051-11.555-8.968-23.063-9.414-7.523-.292-10.726.028-14.774 1.477m198.34-.354c-5.976 1.606-12.145 5.854-16.176 11.14-1.688 2.212-15.412 24.014-30.499 48.45-27.134 43.948-27.435 44.496-27.824 50.604-.492 7.721 1.053 12.508 5.698 17.66 9.118 10.114 24.604 10.382 33.791.585 1.74-1.855 6.577-8.734 10.75-15.286L199 119.671v48.483c0 55.779.065 56.323 7.569 63.547 7.248 6.977 20.349 9.275 32.499 5.701 7.136-2.099 14.093-9.014 15.77-15.674 1.651-6.556 1.651-180.9 0-187.456-1.677-6.66-8.634-13.575-15.77-15.674-6.448-1.897-16.684-1.969-23.396-.165" fill="#1976D2" fill-rule="evenodd"/><path fill-opacity=".169" d="M21.92 17.954C13.146 19.547 6.427 24.372 2.364 32 .592 35.328.486 39.879.219 124.356c-.184 58.029.077 90.814.752 94.5 1.456 7.96 5.248 13.004 12.498 16.625 5.37 2.682 6.897 2.976 15.214 2.927 8.202-.049 9.895-.387 14.998-2.997 4.364-2.231 6.485-4.126 8.786-7.847l3.033-4.905.277-50.829c.152-27.957.602-50.824 1-50.817.397.007 2.817 3.27 5.377 7.25 22.288 34.657 47.497 72.756 49.677 75.079 8.874 9.449 24.398 9.449 33.366 0 5.703-6.01 7.717-16.908 4.513-24.424C148.105 175.155 63.744 38.22 58.582 31c-3.998-5.592-10.496-10.634-15.374-11.931-5.621-1.494-16.155-2.046-21.288-1.115m197.559-.011c-6.553 1.022-12.033 3.894-16.979 8.901-4.493 4.549-59.158 92.478-60.584 97.45-3.516 12.26 4.033 25.461 16.478 28.812 7.371 1.985 17.296-.809 22.232-6.259 1.17-1.291 5.407-7.522 9.417-13.847 4.01-6.325 7.891-12.159 8.624-12.964 1.112-1.222 1.333 6.982 1.333 49.553v51.018l2.647 5.312c3.422 6.868 8.963 10.497 18.473 12.101 17.584 2.966 31.205-4.637 33.873-18.906 1.364-7.297 1.364-174.931 0-182.228-1.393-7.451-5.368-12.763-12.032-16.078-6.108-3.039-15.225-4.151-23.482-2.865" fill="#1976D2" fill-rule="evenodd"/><path fill-opacity=".225" d="M16.73 19.544C10.528 21.531 3.575 28.168 2.11 33.5c-.762 2.774-1.094 32.056-1.082 95.5.015 86.466.116 91.72 1.843 95.5 4.529 9.915 13.235 14.044 28.031 13.294 9.442-.479 14.55-2.454 19.309-7.467 5.688-5.991 5.789-7.054 5.789-60.953 0-27.156.337-49.349.75-49.319.413.031 5.681 7.793 11.707 17.25 6.026 9.457 18.247 28.298 27.157 41.869 19.453 29.63 20.21 30.326 32.977 30.326 7.527 0 8.61-.259 12.573-3.006 8.609-5.969 12.224-18.675 7.963-27.994-2.454-5.367-87.264-142.648-92.056-149.01-2.326-3.088-5.835-6.132-9.147-7.935-4.811-2.618-6.472-2.956-15.898-3.231-7.43-.217-11.929.142-15.296 1.22m196.864.047c-9.031 2.872-13.505 8.783-43.028 56.845-14.813 24.116-27.603 45.882-28.422 48.369-1.219 3.701-1.279 5.52-.333 10.03 2.699 12.868 14 20.437 26.912 18.024 7.946-1.484 11.507-4.865 21.053-19.988 4.798-7.602 9.062-13.832 9.474-13.846.412-.014.75 22.418.75 49.849 0 54.446.095 55.456 5.789 61.453 4.66 4.909 9.894 6.973 18.939 7.47 14.583.8 23.176-2.95 27.739-12.106l2.533-5.084v-92.335c0-101.005.271-96.214-5.803-102.614-5.111-5.384-9.729-7.022-20.697-7.338-6.996-.202-11.474.18-14.906 1.271" fill="#1976D2" fill-rule="evenodd"/></svg>