<svg xmlns="http://www.w3.org/2000/svg" width="1240" height="1240"><path d="M504.259 260.25c-2.009 2.546-401.629 695.349-403.891 700.206-1.292 2.774-2.352 6.169-2.357 7.544-.013 4.02 3.213 9.185 6.973 11.165 3.317 1.747 8.618 1.835 110.145 1.835 103.571 0 106.846-.058 113.088-1.985 8.21-2.536 17.297-8.412 22.631-14.635 2.301-2.684 35.482-59.105 73.736-125.38 38.255-66.275 70.501-121.513 71.659-122.75 3.348-3.578 6.463-2.971 7.704 1.5.695 2.502 1.044 43.214 1.047 122.322.007 132.289-.45 123.72 7.043 132.233 2.271 2.58 5.976 5.315 8.911 6.577l5.023 2.161 108.265-.271L742.5 980.5l8.555-4.184c15.56-7.611 11.713-1.776 85.391-129.498 75.689-131.207 75.604-131.064 78.924-132.577 5.33-2.428 5.09-7.713 5.63 124.162.498 121.698.507 122.112 2.614 126.597 2.498 5.316 8.137 11.146 13.236 13.684 3.432 1.708 8.975 1.832 92.984 2.082 59.699.177 90.62-.08 93.208-.777 5.677-1.529 11.825-6.729 15.356-12.989l3.102-5.5v-683l-3.102-5.5c-3.488-6.182-9.609-11.409-15.173-12.954-2.45-.681-37.627-1.037-102.775-1.04L921.4 259l-97.95 169.661-97.95 169.662-.5-160.412c-.481-154.195-.573-160.557-2.372-164.178-2.509-5.049-10.496-12.077-15.392-13.544-5.899-1.768-201.581-1.709-202.977.061" fill="undefined" fill-rule="evenodd"/></svg>