<svg xmlns="http://www.w3.org/2000/svg" width="1240" height="1240"><path d="M489.616 218.75c-4.77 7.415-450.943 780.824-452.264 783.968-1.807 4.3-1.71 10.689.219 14.419.986 1.907 3.313 3.843 6.25 5.201l4.679 2.162 113 .285c70.767.179 116.077-.087 121.232-.711 14.118-1.71 30.131-10.621 37.65-20.953 1.85-2.542 37.897-64.471 80.105-137.621 42.208-73.15 77.834-134.456 79.168-136.237 4.593-6.127 8.52-6.483 10.209-.925.583 1.918 1.168 56.257 1.486 138.063l.524 134.901 3.108 6.313c3.322 6.749 7.746 11.067 15.018 14.661l4.5 2.224 87.5.269c48.125.148 102.35-.11 120.5-.574 30.027-.768 33.531-1.037 38.889-2.993 7.856-2.866 17.703-9.398 22.926-15.208 2.609-2.901 34.358-56.88 82.118-139.612 42.826-74.185 78.811-136.064 79.966-137.509 4.137-5.173 8.321-6.023 10.259-2.085.463.942 1.067 63.137 1.342 138.212l.5 136.5 2.137 4.622c2.909 6.291 8.234 11.948 14.033 14.911l4.83 2.467h204l4.291-2.291c6.239-3.331 11.828-9.574 14.165-15.822l2.044-5.462v-759.85l-2.044-5.462c-2.337-6.248-7.926-12.491-14.165-15.822l-4.291-2.291H957.767l-109.37 189.437c-60.154 104.19-109.785 189.851-110.291 190.357-.562.562-.86-69.127-.764-178.436L737.5 238.5l-2.299-5c-2.703-5.878-8.234-11.912-13.33-14.543-1.996-1.031-6.496-2.34-10-2.908-4.099-.665-44.44-1.037-113.107-1.041L492.028 215l-2.412 3.75" fill="undefined" fill-rule="evenodd"/></svg>