<svg xmlns="http://www.w3.org/2000/svg" width="1240" height="1240"><path d="M281.976 608.156C163.464 813.411 65.903 982.732 65.173 984.424c-3.368 7.808-1.023 15.296 5.898 18.824 3.205 1.634 10.827 1.749 116.497 1.75 125.449.002 116.99.437 130.684-6.719 13.312-6.957 11.152-3.58 92.248-144.225 40.7-70.586 75.403-129.849 77.118-131.696 3.775-4.065 5.767-4.225 8.109-.652 1.668 2.545 1.803 10.446 2.273 133.25l.5 130.544 2.211 4.134c3.067 5.733 7.85 10.252 13.768 13.008l5.021 2.338 113.5-.016 113.5-.016 6.558-2.235c8.855-3.019 17.137-8.181 22.803-14.213 3.404-3.625 24.61-39.523 77.087-130.5 39.814-69.025 73.868-127.838 75.674-130.696 5.016-7.936 9.766-10.095 12.051-5.477.455.92 1.052 60.173 1.327 131.673.464 120.624.625 130.277 2.236 133.838 3.008 6.653 7.543 11.395 13.96 14.602l6.123 3.06h94.475c67.319 0 95.558-.325 98.244-1.13 6.346-1.901 13.097-7.784 16.444-14.328l3.018-5.901V256.359l-3.018-5.901c-3.444-6.734-10.338-12.615-16.883-14.402-2.933-.8-34.049-1.039-109.414-.837l-105.315.281-104.685 181.31L732.5 598.12l-.5-171.31c-.468-160.377-.612-171.547-2.248-175.023-2.481-5.271-7.28-10.424-12.639-13.575L712.5 235.5l-107.524-.267-107.523-.268-215.477 373.191" fill="undefined" fill-rule="evenodd"/></svg>