<svg xmlns="http://www.w3.org/2000/svg" width="256" height="256"><path fill-opacity=".016" d="M0 128.004v128.004l128.25-.254 128.25-.254.254-127.75L257.008 0H0v128.004m.485.496c0 70.4.119 99.053.265 63.672.146-35.38.146-92.98 0-128C.604 29.153.485 58.1.485 128.5" fill="#1976D2" fill-rule="evenodd"/><path fill-opacity=".255" d="M118.962 3.381c-6.564 4.818-12.523 11.981-16.227 19.507L99.5 29.46v21.02c0 18.296-.241 21.571-1.859 25.27C96.206 79.033 95.243 80 93.41 80c-2.622 0-2.979-.951-3.758-10-.651-7.563-4.204-16.498-8.413-21.157-1.936-2.143-3.674-3.742-3.862-3.553-.189.188-.76 5.146-1.27 11.018-.998 11.496-.731 10.824-10.941 27.548-7.7 12.611-9.503 17.998-9.589 28.644-.065 7.909.251 9.615 2.604 14.076 3.821 7.246 13.252 15.55 23.331 20.545 4.671 2.314 8.772 3.928 9.115 3.586.342-.342-.541-2.005-1.963-3.694-4.885-5.806-4.477-14.341 1.347-28.142 1.538-3.646 3.315-9.124 3.948-12.173.633-3.05 1.814-6.095 2.626-6.768 2.375-1.972 5.846.328 8.267 5.479 1.187 2.525 2.575 4.591 3.085 4.591 2.267 0 9.523-13.418 10.576-19.555 1.741-10.155 2.415-11.588 5.292-11.256 2.131.246 3.29 1.463 5.537 5.811 2.766 5.353 2.827 5.808 2.292 17-.512 10.68-.438 11.34 1.03 9.25 2.202-3.136 6.112-2.969 7.361.315.536 1.411.975 3.473.975 4.582 0 1.11 1.422 5.243 3.159 9.185 3.878 8.796 4.618 14.872 2.447 20.069-.883 2.114-1.606 4.261-1.606 4.772 0 .51 3.601-.945 8.003-3.235 13.16-6.847 20.993-17.028 23.253-30.225 1.307-7.627-.418-18.468-5.647-35.499-4.741-15.444-5.999-23.866-5.22-34.954.358-5.093.305-9.249-.119-9.235-1.826.059-10.52 7.337-13.226 11.073-1.624 2.242-3.661 6.512-4.526 9.489-1.474 5.069-1.774 5.413-4.717 5.413C134.347 63 120 37.561 120 22.572c0-5.324 2.159-15.379 4.471-20.822 1.087-2.56-.4-2.12-5.509 1.631m55.521 77.359c2.518 6.288 5.636 21.879 5.803 29.01.106 4.537.253 8.25.327 8.25.464 0 21.516-26.172 21.939-27.276.339-.883-.636-1.74-2.764-2.429-1.808-.585-8.4-2.92-14.649-5.189-9.375-3.405-11.237-3.818-10.656-2.366m-51.421 9.407c-1.514 7.061-6.429 17.039-10.538 21.396-4.791 5.08-7.288 4.502-10.604-2.456-1.977-4.146-2.738-5.005-3.25-3.668-.369.959-.67 2.392-.67 3.184 0 .792-1.594 5.519-3.542 10.505-6.215 15.905-6.368 20.645-.877 27.171 3.595 4.272 3.016 8.115-1.285 8.531-1.762.17-4.184-.215-5.382-.856-2.007-1.074-3.386.04-17.546 14.178C60.916 176.571 54 183.814 54 184.227c0 .413 3.644 2.583 8.098 4.822 7.59 3.816 8.384 4.01 12.676 3.095 3.221-.687 5.638-.631 8.152.19 3.244 1.058 3.602 1.545 3.875 5.274l.3 4.108 8.716 4.142c4.793 2.278 8.973 4.142 9.287 4.142.649 0 46.218-55.642 46.723-57.05.18-.502-1.268-.246-3.218.569-1.95.814-4.684 1.481-6.077 1.481-3.229 0-3.358-2.831-.461-10.179 2.416-6.13 2.149-8.518-2.051-18.366-1.631-3.825-2.978-7.968-2.993-9.205-.048-3.978-1.882-2.397-2.574 2.218-.726 4.839-2.539 7.097-4.955 6.17-3.045-1.169-3.573-5.361-2.421-19.197.838-10.064.825-14.209-.056-16.877-1.744-5.285-2.732-5.139-3.959.583m68.612 17.659c-6.504 8.082-13.328 17.526-15.164 20.987-4.609 8.688-7.917 12.784-13.647 16.901-3.2 2.299-13.684 14.319-30.135 34.551L107.5 211.27l.26 4.542c.143 2.498.52 4.8.836 5.115.317.315 2-1.211 3.74-3.391 7.109-8.906 7.309-9.076 9.006-7.667 2.336 1.938 3.598.534 2.974-3.31-.477-2.937.089-4.238 4.124-9.481 4.675-6.076 5.899-6.956 7.06-5.078.34.55 1.224 1 1.964 1 .971 0 1.216-1.044.881-3.75-.407-3.285.105-4.465 4.125-9.519 3.923-4.932 4.866-5.622 6.494-4.75 2.795 1.495 2.962 1.337 2.379-2.252-.455-2.805.142-4.089 4.186-9 4.819-5.854 6.187-6.613 8.235-4.565.885.885 1.021.288.57-2.491-.533-3.289-.126-4.201 4.075-9.118 2.986-3.496 5.194-5.261 6.129-4.902 1.049.402 1.462-.165 1.462-2.009 0-3.286 8.027-13.26 10.342-12.85 1.167.207 1.658-.421 1.658-2.12 0-2.785 7.479-12.674 9.585-12.674.778 0 1.415-.837 1.415-1.859 0-1.023 1.571-3.835 3.49-6.25 1.92-2.415 3.495-5.367 3.5-6.559.012-2.596-.954-5.354-1.847-5.276-.354.031-5.965 6.669-12.469 14.75m12.076-.875c-3.112 4.4-3.305 5.751-1.218 8.51.863 1.141 1.468 4.13 1.468 7.25 0 2.92.397 5.309.883 5.309.485 0 1.267 3.488 1.738 7.75l.855 7.75.702-10.5c.386-5.775 1-13.931 1.365-18.123.624-7.18-.306-11.916-2.328-11.856-.393.012-1.953 1.771-3.465 3.91m-10.536 13.251c-3.513 4.571-3.991 6.583-1.766 7.436.969.372 1.674 2.844 2.129 7.469.375 3.802 1.073 6.913 1.552 6.913.479 0 .871 1.969.871 4.375 0 2.406.338 5.894.75 7.75.581 2.614.907 1.007 1.447-7.125.383-5.775.99-14.158 1.35-18.628.619-7.699-.275-12.372-2.368-12.372-.413 0-2.197 1.882-3.965 4.182m-10.985 13.683c-3.488 4.34-4.057 7.203-1.802 9.074.796.661 1.732 4.032 2.117 7.623.379 3.541 1.087 6.438 1.572 6.438.486 0 .89 2.363.898 5.25.027 10.689 1.468 10.525 2.189-.25.386-5.775.991-14.336 1.343-19.024.558-7.422.4-8.821-1.224-10.826l-1.864-2.303-3.229 4.018m-12.517 15.575c-4.272 5.111-4.391 5.636-1.802 7.979 1.264 1.144 2.146 3.759 2.607 7.727.427 3.68 1.235 6.205 2.09 6.533.979.376 1.398 2.36 1.408 6.678.009 3.379.402 6.754.875 7.5 1.618 2.553 2.313-.761 2.026-9.67-.159-4.968.271-10.61 1.006-13.18 1.618-5.652.924-13.415-1.431-16.017-.991-1.095-2.086-1.99-2.434-1.99-.349 0-2.304 1.998-4.345 4.44m-12.498 15.742c-3.685 4.794-4.002 6.845-1.319 8.52 1.36.85 2.094 2.897 2.599 7.247.394 3.398 1.297 6.394 2.054 6.818.872.488 1.456 3.142 1.651 7.503.454 10.176 2.277 7.745 2.452-3.27.083-5.225.634-11.3 1.226-13.5.591-2.2 1.084-5.575 1.095-7.5.023-3.857-3.198-10-5.243-10-.716 0-2.747 1.882-4.515 4.182m-13.499 16.665c-4.23 5.547-4.481 6.672-1.808 8.103 1.377.737 2.233 2.949 3.078 7.958.643 3.816 1.748 7.159 2.455 7.431.778.298 1.56 3.286 1.983 7.577 1.102 11.184 2.645 8.491 2.673-4.666.013-6.463.095-15.017.182-19.009.142-6.523-.096-7.513-2.345-9.763l-2.503-2.503-3.715 4.872m-92.512 10.095c-1.001 4.335-.889 5.547.912 9.88l2.052 4.938 25.667 12.482c17.085 8.309 25.912 12.11 26.401 11.37 1.059-1.604.93-6.458-.341-12.785l-1.106-5.507-8.574-3.91c-4.716-2.151-8.944-4.06-9.394-4.243-.451-.184-.82 1.509-.82 3.761v4.094L78 208l-8-4.022v-9.07l-8.6-3.954c-4.729-2.175-8.702-3.954-8.828-3.954-.126 0-.742 2.224-1.369 4.942m-4.168-.008c-1.323 2.473-1.348 10.754-.035 11.566.55.34 1 3.606 1 7.259 0 4.767.306 6.335 1.083 5.558.703-.703.869-3.844.473-8.95-.335-4.327-.629-10.004-.652-12.617-.048-5.243-.337-5.679-1.869-2.816M75 193.889c-1.866.515-2.577 1.466-2.802 3.75l-.302 3.06 6.302-.099c3.466-.055 6.584-.487 6.929-.961 1.276-1.749-.417-4.544-3.376-5.576-3.34-1.164-3.176-1.16-6.751-.174m54.721 5.075c-2.047 2.741-3.721 5.282-3.721 5.645 0 .364 1.063 1.647 2.363 2.852 1.697 1.573 2.563 3.788 3.072 7.864.47 3.762 1.166 5.675 2.065 5.675.908 0 1.572 1.898 2.01 5.75.825 7.26 1.381 9.25 2.58 9.25.557 0 .94-5.108.919-12.25-.019-6.738.018-14.892.083-18.121.114-5.685-1.824-10.373-4.682-11.326-.533-.177-2.643 1.92-4.689 4.661m-54.692 2.997c-.809.512-1.259 1.124-1 1.362.722.661 8.819 4.677 9.431 4.677.297 0 .54-1.575.54-3.5 0-3.381-.128-3.499-3.75-3.485-2.062.009-4.412.434-5.221.946m40.721 14.989c-4.245 5.507-4.569 7.058-1.829 8.768 1.234.771 2.336 3.269 3.085 6.991.64 3.185 1.815 6.301 2.61 6.924.795.623 1.994 4.413 2.665 8.422.755 4.517 1.754 7.465 2.627 7.753 1.179.389 1.278-.982.612-8.422-.438-4.887-.719-9.786-.624-10.886 1.473-17.21 1.376-18.606-1.503-21.612-1.522-1.588-3.02-2.869-3.33-2.845-.31.023-2.25 2.231-4.313 4.907" fill="#1976D2" fill-rule="evenodd"/><path fill-opacity=".454" d="M120.102 3.084c-5.541 3.37-12.984 11.931-16.381 18.842l-3.221 6.553-.024 20.011c-.025 20.471-.931 27.071-4.224 30.76-3.58 4.011-7.252.067-7.252-7.791 0-6.81-2.313-14.218-6.259-20.049-4.648-6.867-5.741-6.796-5.741.37 0 10.36-1.645 16.124-7.056 24.72-2.77 4.4-6.904 11.825-9.188 16.5-3.805 7.789-4.185 9.295-4.55 18-.386 9.192-.29 9.71 2.961 15.967 4.572 8.8 16.419 18.123 29.206 22.985l2.817 1.071-3.095-4.209c-4.217-5.733-4.209-12.182.028-23.814 1.703-4.675 3.931-11.555 4.951-15.288C95.358 99.353 95.573 99 98.385 99c2.773 0 6.187 3.472 7.71 7.844 1.094 3.138 1.206 3.193 3.06 1.516 3.067-2.776 8.797-15.399 9.469-20.86.672-5.461 2.681-9.5 4.725-9.5 1.712 0 4.977 3.632 7.192 8 1.401 2.762 1.741 5.682 1.612 13.854-.09 5.694-.458 10.869-.819 11.5-.361.63.503.091 1.92-1.198 3.121-2.841 6.502-2.183 7.244 1.411.276 1.338.762 3.671 1.08 5.183.318 1.513 1.919 5.81 3.558 9.549 3.391 7.739 3.888 14.316 1.51 20.007-.849 2.032-1.298 3.694-.998 3.694.301 0 4.103-1.85 8.45-4.112 18.319-9.531 25.583-27.356 20.126-49.388-1.09-4.4-3.647-13.85-5.683-21-3.382-11.873-3.699-14.062-3.661-25.25.022-6.737-.205-12.25-.506-12.25-.301 0-2.517 1.414-4.924 3.143-5.349 3.842-9.122 9.118-11.013 15.401-2.712 9.01-5.237 9.594-12.421 2.874-5.737-5.366-13.166-18.937-15.629-28.551-1.907-7.446-1.424-14.576 1.579-23.281 1.121-3.253 1.905-6.049 1.74-6.213-.164-.164-1.786.606-3.604 1.711M175 80.343c0 .264 1.128 4.718 2.508 9.9 1.379 5.182 2.841 13.262 3.25 17.956l.742 8.534 10.259-12.616c5.643-6.94 10.368-13.008 10.5-13.485.133-.478-5.025-2.803-11.46-5.167C176.621 80.256 175 79.73 175 80.343m16.935 27.775c-6.839 8.479-13.769 18.075-15.398 21.323-3.137 6.25-12.424 17.071-15.486 18.043-1.002.318-13.455 14.851-27.674 32.297-26.245 32.2-26.502 32.599-24.95 38.783.613 2.445.817 2.319 5.738-3.57 3.633-4.348 5.567-5.924 6.718-5.476 3.265 1.272 3.614.945 3.298-3.091-.306-3.914 1.189-6.614 8.524-15.389.212-.254 1.319.12 2.458.832 1.487.928 2.379.988 3.155.212.776-.776.743-1.082-.118-1.082-2.567 0-.992-4.919 3.386-10.575 4.628-5.981 6.686-7.412 7.88-5.48 1.374 2.224 2.384.907 1.846-2.407-.554-3.416.527-5.24 8.874-14.988.505-.589 1.27-.494 2.014.25 1.922 1.922 2.422 1.42 2.043-2.05-.287-2.633.442-4.199 3.839-8.25 2.409-2.872 4.987-4.966 6.056-4.921 1.324.057 1.862-.618 1.862-2.334 0-1.357 2.035-5.004 4.648-8.329 3.666-4.667 4.933-5.679 6-4.794 1.079.897 1.352.579 1.352-1.575 0-2.566 7.487-13.547 9.237-13.547.42 0 .763-.5.763-1.111s1.8-3.261 4-5.889c3.961-4.732 4.557-6.721 3.114-10.399-.615-1.57-2.905.778-13.179 13.517m13.561-2.76c-4.847 6.625-4.839 6.605-3.203 8.418.856.948 1.873 4.537 2.261 7.974.387 3.438 1.076 6.25 1.531 6.25.455 0 .996 3.037 1.203 6.75.326 5.858.385 5.56.447-2.25.039-4.95.522-11.747 1.072-15.104 1.47-8.972-.449-15.95-3.311-12.038M194.2 119.9c-3.548 4.416-3.933 6.247-1.7 8.1.943.783 1.5 2.986 1.5 5.931 0 2.578.661 5.56 1.468 6.628.902 1.193 1.552 4.639 1.686 8.941.191 6.161.299 5.682.907-4 .379-6.05 1.026-13.959 1.437-17.576.561-4.93.392-7.256-.675-9.291l-1.422-2.715-3.201 3.982m-12.014 14.865c-3.69 4.659-3.749 4.955-1.498 7.443.947 1.046 2.003 4.541 2.407 7.962.395 3.353 1.188 6.387 1.761 6.741.573.354 1.212 3.782 1.419 7.617.309 5.714.398 5.167.492-3.028.062-5.5.591-11.572 1.173-13.493 1.667-5.495 1.317-12.468-.754-15.025l-1.813-2.24-3.187 4.023m-12.102 15.129c-3.577 4.516-3.639 4.835-1.414 7.293.918 1.015 2.013 4.381 2.434 7.479.42 3.099 1.3 5.966 1.956 6.371.655.405 1.472 4.05 1.815 8.1l.625 7.363.69-10.5c.379-5.775.992-14.009 1.362-18.298.573-6.66.414-8.082-1.095-9.75-2.405-2.657-2.834-2.527-6.373 1.942m-21.791 4.174c-2.8 1.06-57.779 1.382-61.769.362-2.843-.726-3.634-.072-17.709 14.655L54.081 184.5l8.331 4.196c7.606 3.831 8.636 4.102 11.845 3.117C81.6 189.56 88 192.987 88 199.174c0 2.451.887 3.145 8.68 6.798 4.775 2.237 8.978 3.721 9.341 3.298 6.813-7.946 45.065-55.508 44.82-55.729-.188-.17-1.334.068-2.548.527m10.125 10.601c-4.82 6.063-4.933 6.434-2.503 8.267 1.608 1.213 2.419 3.257 3.004 7.566.441 3.248 1.29 6.068 1.887 6.267.597.199 1.448 3.595 1.89 7.546l.804 7.185.693-10c.381-5.5.988-13.41 1.35-17.577.61-7.025.485-7.779-1.71-10.331l-2.369-2.753-3.046 3.83m-14.756 18.081l-3.53 4.75 2.372 2.5c1.601 1.688 2.606 4.286 3.093 8 .396 3.025 1.316 5.95 2.044 6.5.727.55 1.753 4.085 2.28 7.856 1.382 9.889 2.394 9.643 1.466-.356-.433-4.675-.705-9.4-.604-10.5 1.388-15.056 1.365-17.314-.207-20.353-.895-1.731-2.023-3.147-2.506-3.147-.483 0-2.467 2.137-4.408 4.75m-91.148 5.493c-1.928 5.661-2.038 8.513-.489 12.749l1.648 4.508 23.913 12.121c13.153 6.667 24.874 12.418 26.048 12.781 3.005.928 3.726-2.719 2.186-11.073l-1.224-6.645-8.316-3.842c-4.574-2.113-8.758-3.842-9.298-3.842-.54 0-.982 1.541-.982 3.425v3.424l-7.987-3.674-7.987-3.675-.013-4.527-.013-4.527-8.529-4.23c-5.959-2.955-8.657-3.851-8.957-2.973m-5.612 5.507c-.577 1.512-.756 4.1-.397 5.75.358 1.65.963 6.15 1.342 10l.691 7 .591-6.5c.405-4.459.151-7.624-.809-10.079-1.027-2.625-1.13-4.291-.385-6.25.559-1.469.79-2.671.515-2.671s-.972 1.238-1.548 2.75m26.348.912c-.687.278-1.25 1.826-1.25 3.44 0 2.723.2 2.88 2.75 2.167 1.513-.423 4.438-.747 6.5-.72 3.942.051 5.054-1.845 2.55-4.349-1.178-1.178-8.091-1.53-10.55-.538m56.92 4.751c-3.68 5.124-3.855 6.15-1.281 7.528 1.31.701 2.225 2.919 2.986 7.237.603 3.425 1.732 6.582 2.508 7.017.887.496 1.678 3.433 2.125 7.887.392 3.903 1.076 6.719 1.519 6.258.443-.462.405-4.665-.086-9.34-.604-5.754-.54-9.584.196-11.856 2.233-6.888-.407-19.144-4.122-19.144-.372 0-2.102 1.986-3.845 4.413m-54.42 2.254c-2.797.767-2.042 1.684 3.334 4.047l5.037 2.213-.31-3.213c-.27-2.793-.704-3.234-3.311-3.37-1.65-.086-3.787.059-4.75.323m39.78 16.422l-3.925 5.147 2.671 1.947c2.057 1.498 2.828 3.118 3.347 7.03.371 2.796 1.462 5.872 2.425 6.835 1.028 1.028 2.102 4.34 2.601 8.021.468 3.448 1.321 6.425 1.896 6.615.716.237.775-2.516.187-8.769-.569-6.044-.5-10.142.205-12.164 2.424-6.954.025-18.788-3.959-19.527-.859-.16-3.231 1.959-5.448 4.865" fill="#1976D2" fill-rule="evenodd"/><path fill-opacity=".98" d="M175.463 81.755c2.366 6.132 4.852 17.908 5.398 25.572l.639 8.956 10.352-12.739c5.694-7.007 9.969-13.084 9.5-13.505-.469-.422-2.202-1.23-3.852-1.797-1.65-.566-7.435-2.65-12.855-4.631-8.231-3.007-9.744-3.313-9.182-1.856m16.659 26.37c-6.258 7.717-12.491 16.359-13.85 19.203-3.507 7.336-9.717 15.094-15.449 19.302-7.109 5.218-54.847 63.929-54.753 67.337.179 6.451 1.264 6.474 6.347.137 4.027-5.021 5.145-5.874 6.646-5.07 2.684 1.436 2.859 1.261 2.289-2.284-.444-2.767.246-4.262 4.644-10.062 5.026-6.629 5.228-6.771 7.484-5.293 2.297 1.505 2.314 1.486 1.893-2.188-.374-3.261.189-4.467 4.687-10.034 4.927-6.098 5.181-6.265 7.026-4.595 1.854 1.678 1.914 1.61 1.921-2.173.006-3.132.922-5.054 4.628-9.713 2.823-3.55 5.153-5.604 5.992-5.282.931.357 1.373-.252 1.373-1.889 0-3.238 9.471-14.661 11.508-13.88 1.069.411 1.492-.112 1.492-1.846 0-2.957 8.012-13.87 9.75-13.281.688.233 1.253-.35 1.257-1.295.009-1.911 8.626-13.219 10.074-13.219.505 0 .919-.521.919-1.158 0-.636 1.763-3.449 3.917-6.25 3.049-3.964 3.799-5.701 3.383-7.842-.293-1.513-.818-2.729-1.167-2.703-.348.026-5.753 6.361-12.011 14.078M147.5 154.536c-3.761 1.722-55.744 2.082-60.125.416-2.654-1.009-3.322-.483-18.067 14.24L53.996 184.48l8.052 3.718c7.353 3.395 8.589 3.668 14.252 3.15 5.373-.491 6.567-.276 8.95 1.615 1.994 1.582 2.75 3.081 2.75 5.451 0 3.141.337 3.42 8.564 7.086 8.399 3.742 8.599 3.779 10.358 1.908 1.429-1.52 39.554-48.269 43.352-53.158 1.154-1.486 1.08-1.478-2.774.286M51.981 192.07c-.88 3.269-.779 5.022.515 8.919l1.611 4.85 25.597 12.597c14.079 6.928 25.711 12.476 25.849 12.33 1.152-1.216.014-15.369-1.399-17.397-.36-.516-4.254-2.572-8.654-4.568l-8-3.63-.31 3.415c-.171 1.878-.744 3.414-1.273 3.414-.529 0-4.551-1.805-8.939-4.011L69 203.978v-8.539l-7.517-3.72c-4.134-2.045-7.716-3.719-7.961-3.719-.245 0-.938 1.831-1.541 4.07m22.769 2.619c-1.01.264-1.75 1.405-1.75 2.697 0 2.077.435 2.235 5.994 2.177 6.276-.066 7.373-1.053 4.435-3.992-1.506-1.505-4.952-1.856-8.679-.882m2 6.983c-2.644.717-2.124 1.779 1.784 3.643 4.585 2.186 4.655 2.169 4.282-1.065-.322-2.801-2.24-3.616-6.066-2.578" fill="#1976D2" fill-rule="evenodd"/></svg>