<svg xmlns="http://www.w3.org/2000/svg" width="256" height="256"><path fill-opacity=".016" d="M0 128.004v128.004l128.25-.254 128.25-.254.254-127.75L257.008 0H0v128.004m.485.496c0 70.4.119 99.053.265 63.672.146-35.38.146-92.98 0-128C.604 29.153.485 58.1.485 128.5" fill="#1976D2" fill-rule="evenodd"/><path fill-opacity=".33" d="M49.983 124.741C20.605 175.646.5 211.502.5 212.991v2.509l28 .255c25.874.236 28.228.113 31-1.615 2.181-1.359 7.296-9.351 18.727-29.255 19.579-34.092 19.593-34.114 20.788-33.375.611.377.985 12.098.985 30.894 0 28.071.134 30.407 1.829 31.941 1.608 1.456 5.144 1.655 29.352 1.655 26.928 0 27.592-.049 30.721-2.25 2.297-1.616 8.046-10.681 20.402-32.168 9.461-16.455 17.764-30.105 18.449-30.333.978-.326 1.247 6.26 1.247 30.513 0 28.693.132 31.048 1.829 32.583 1.592 1.441 4.868 1.655 25.377 1.655 19.635 0 23.754-.247 24.785-1.489.68-.819 1.522-1.312 1.872-1.095.35.216.51-38.132.355-85.218-.255-77.322-.44-85.786-1.905-87.405-1.481-1.637-3.855-1.79-27.218-1.763l-25.595.03L178 79.945l-23.5 40.884-.5-39.496c-.476-37.632-.592-39.563-2.441-40.914-1.554-1.136-6.946-1.419-27.017-1.419H99.467l-49.484 85.741M.195 212.5c.02 1.65.244 2.204.498 1.231.254-.973.237-2.323-.037-3-.274-.677-.481.119-.461 1.769" fill="#1976D2" fill-rule="evenodd"/><path fill-opacity=".322" d="M94.694 48.25C82.829 68.489 3.166 206.712 1.575 209.822c-3.11 6.075-2.651 6.178 27.4 6.178 26.077 0 26.81-.055 30.021-2.25 2.451-1.675 7.792-10.041 20.91-32.75 9.69-16.775 18.062-30.388 18.606-30.252.611.154 1.179 12.119 1.488 31.332.477 29.624.594 31.152 2.5 32.545 1.665 1.216 6.65 1.412 29.729 1.168l27.729-.293 2.587-2.589c1.424-1.424 10.328-16.014 19.787-32.422 9.46-16.408 17.755-30.018 18.434-30.244.961-.321 1.234 6.366 1.234 30.217v30.629l2.455 2.454 2.454 2.455H229c21.994 0 22.102-.011 24.494-2.403 1.322-1.322 2.578-2.11 2.791-1.75.213.359.236.054.051-.679-.185-.732-.336-38.665-.336-84.295V43.909l-2.455-2.454L251.091 39H202.21l-23.855 41.347-23.855 41.347-.5-39.436-.5-39.437-2.361-1.91C148.96 39.147 146.909 39 124.448 39h-24.331l-5.423 9.25" fill="#1976D2" fill-rule="evenodd"/><path fill-opacity=".149" d="M50.525 125.246C23.286 172.407 1 211.894 1 212.996c0 1.958.649 2.004 28.354 2.004 28.022 0 28.382-.026 30.768-2.25 1.328-1.238 10.264-15.863 19.858-32.5C89.574 163.613 98.003 150 98.712 150c1.022 0 1.288 6.242 1.288 30.277 0 25.786.231 30.608 1.557 32.5 1.545 2.207 1.755 2.223 29.565 2.223 27.025 0 32.877-.574 31.332-3.075-.332-.536-.134-.851.44-.7.573.151 3.792-4.45 7.153-10.225 3.361-5.775 5.571-9.973 4.91-9.328-1.345 1.312-4.261.629-3.382-.793a1.08 1.08 0 0 1 1.483-.343c.508.314.625-.199.261-1.148-.428-1.115-.273-1.478.442-1.036.605.374 1.426.154 1.824-.49.461-.745.29-.903-.471-.433-.862.533-1.014.02-.546-1.845.459-1.826.25-2.588-.71-2.599-.82-.01-.962-.306-.358-.75 2.522-1.853 3.1-4.592 1.932-9.148-.968-3.775-.934-4.644.194-4.91 1.116-.263 1.085-.609-.167-1.861-1.384-1.384-1.359-1.684.252-3.001.984-.805 1.225-1.178.536-.828-1.353.685-1.295-2.016.091-4.237 1.008-1.616-.528-1.616-2.34 0-1.158 1.032-1.217.989-.344-.25 1.693-2.403 2.293-5.998 1.002-6.015-.866-.012-.869-.2-.009-.75 1.024-.656 1.893-3.927 1.392-5.235-1.605-4.186-1.33-13.061.498-16.096.683-1.132.561-1.173-.631-.209-1.206.975-1.477.837-1.477-.75 0-1.076.686-1.952 1.535-1.96.984-.01 1.142-.28.44-.75-.603-.404-1.404-2.085-1.78-3.735-.499-2.186-.409-2.593.33-1.5.872 1.288 1.018 1.253 1.031-.25.008-.963-.66-1.75-1.485-1.75-.825 0-1.5-.45-1.5-1s.563-.887 1.25-.75c1.406.281 1.546-6.418.202-9.664-.53-1.281-.434-1.693.29-1.245 1.143.706 1.133-1.799-.011-2.944-.363-.363-.309-1.388.12-2.278.43-.891.695-2.181.59-2.869-.105-.687-.247-1.7-.316-2.25s-.631-.887-1.25-.75c-.619.138-1.352-.375-1.63-1.139-.293-.807-.06-1.115.556-.734.584.361 1.386.129 1.784-.515.478-.774.288-.902-.56-.377-.862.532-1.118.336-.78-.596.278-.764 1.124-1.244 1.88-1.068 1.092.256 1.121.063.142-.933-1.502-1.527-.607-2.708-8.636 11.395-3.69 6.481-6.396 12.288-6.015 12.905.413.667.243.843-.419.434-1.4-.866-4.541 4.98-3.578 6.657.386.672.333.887-.117.48-.45-.408-1.422-.24-2.16.372-1.119.929-1.342-5.526-1.342-38.817 0-30.388-.299-40.331-1.25-41.602-1.1-1.47-4.275-1.703-26.475-1.941L100.05 39.5l-49.525 85.746m119.43-28.103c-.676 1.296-2.336 4.269-3.687 6.607-1.352 2.338-2.202 4.25-1.889 4.25.313 0 1.268-1.35 2.121-3s2.245-3 3.093-3c1.117 0 1.356-.586.867-2.125-.431-1.358-.299-1.894.364-1.484 1.442.892 2.632-1.335 1.382-2.585-.694-.694-1.414-.266-2.251 1.337M162 111c-.589 1.1-.845 2-.57 2s.981-.9 1.57-2c.589-1.1.845-2 .57-2s-.981.9-1.57 2m-4 7c-.589 1.1-.845 2-.57 2s.981-.9 1.57-2c.589-1.1.845-2 .57-2s-.981.9-1.57 2m11.598 77.163c-.833 1.19-1.29 2.526-1.015 2.971.274.444-.206 2.17-1.068 3.837-.861 1.666-1.363 3.029-1.114 3.029.533 0 6.599-10.453 6.599-11.372 0-1.391-1.977-.499-3.402 1.535M164 208c-.589 1.1-.845 2-.57 2s.981-.9 1.57-2c.589-1.1.845-2 .57-2s-.981.9-1.57 2" fill="#1976D2" fill-rule="evenodd"/></svg>